<?xml version="1.0" encoding="UTF-8"?>
<svg xmlns="http://www.w3.org/2000/svg" version="1.1" viewBox="0 0 1999.92 1999.92">
  <defs>
    <style>
      .cls-1 {
        fill: #b6c4e5;
      }

      .cls-2 {
        fill: #b9bde0;
      }

      .cls-3 {
        fill: #958ca5;
      }

      .cls-4 {
        fill: #4b69b2;
      }

      .cls-5 {
        fill: #d6c8d1;
      }

      .cls-6 {
        fill: #7e8dc6;
      }

      .cls-7 {
        fill: #6076b9;
      }

      .cls-8 {
        fill: #1e2f5e;
      }

      .cls-9 {
        fill: #b1a3b6;
      }

      .cls-10 {
        fill: #8893ca;
      }

      .cls-11 {
        fill: #b1b8dd;
      }

      .cls-12 {
        fill: #f8fbfe;
      }

      .cls-13 {
        fill: #9ba5d3;
      }

      .cls-14 {
        fill: #e1e3f2;
      }

      .cls-15 {
        fill: #d5c7d0;
      }

      .cls-16 {
        fill: #c9cde8;
      }

      .cls-17 {
        fill: #345eab;
      }

      .cls-18 {
        fill: #8793ca;
      }

      .cls-19 {
        fill: #7483c1;
      }

      .cls-20 {
        fill: #b5c4e5;
      }
    </style>
  </defs>
  <!-- Generator: Adobe Illustrator 28.6.0, SVG Export Plug-In . SVG Version: 1.2.0 Build 709)  -->
  <g>
    <g id="Layer_1_copy_xA0_Image">
      <path class="cls-17" d="M75.84,1801.21c.68-.43,1.37-.89,1.62-1.7,1.7-5.5,5.27-9.81,8.96-14.03,1.58-1.8,3.27-3.51,4.97-5.2,12.77-12.78,25.54-25.56,38.32-38.33.68-.68,1.37-1.34,2.03-2.04.82-.87,1.79-1.27,2.99-1.24,1.6.03,3.2,0,4.8,0,200.02,0,400.04.02,600.06-.05,16.62,0,33.26-.38,49.87-1.02,16.13-.62,32.25-1.62,48.34-2.81,14.98-1.11,29.92-2.6,44.85-4.31,15.56-1.78,31.08-3.83,46.55-6.23,23.68-3.68,47.22-8.11,70.59-13.41,38.04-8.63,75.51-19.24,112.26-32.32,41.64-14.82,81.85-32.74,120.13-54.89,42.28-24.47,80.92-53.67,115.4-88.37,37.98-38.22,76.18-76.22,114.27-114.32,13.23-13.24,25.97-26.93,37.34-41.84,2.61-3.42,5.12-6.91,7.7-10.4.53.38,1,.59,1.28.95,5.56,6.89,8.9,14.72,9.85,23.54.93,8.75-.37,17.19-3.38,25.43-2.98,8.14-6.98,15.77-11.57,23.09-7.75,12.37-16.78,23.76-26.49,34.61-5.86,6.55-11.85,13-18.06,19.23-40.65,40.75-81.33,81.47-122.09,122.11-31.42,31.33-66.7,57.65-104.88,80.16-37.14,21.9-76.19,39.7-116.66,54.43-40.58,14.77-82.04,26.5-124.23,35.69-19.51,4.25-39.13,7.97-58.84,11.13-15.14,2.43-30.34,4.51-45.57,6.27-15.88,1.84-31.77,3.41-47.7,4.67-18.49,1.47-37,2.48-55.53,3.11-4.78.16-9.56.42-14.35.64-4.58.9-9.21.16-13.82.4-214.81,0-429.61,0-644.41,0-1.74,0-3.48,0-5.21,0-6.33-.4-12.73-.18-18.86-2.28-4.62-1.58-8.93-3.52-10.51-8.74v-1.92Z"/>
      <path class="cls-6" d="M109.38,1813.74c3.35-.02,6.71-.06,10.06-.06,210.82-.01,421.64-.02,632.46-.02,1.11,0,2.23.09,3.34.14.21.3.2.58-.08.84H109.42c-.21-.19-.29-.38-.23-.59.06-.21.12-.31.19-.31Z"/>
      <path class="cls-3" d="M1256.99,219.12h640.95c.25.69.06,1.22-.58,1.6-2.24,1.15-4.67.92-7.05.92-208.56.02-417.13.02-625.69,0-2.38,0-4.81.23-7.06-.91-.63-.38-.82-.92-.57-1.61Z"/>
      <path class="cls-12" d="M75.84,1803.13c.51.35,1.24.6,1.49,1.08,1.55,3.08,4.37,4.46,7.33,5.65,3.69,1.48,7.57,2.24,11.48,2.8,2.81.41,5.64.7,8.47,1.05.33.2.44.4.34.61-.1.21-.21.32-.32.32h-28.79c0-3.84,0-7.68,0-11.51Z"/>
      <path class="cls-9" d="M1256.99,219.12c0,.27-.02.54-.03.8-4.83,2.8-9.84,1.81-14.86.73-.59-.38-.75-.89-.46-1.54h15.35Z"/>
      <path class="cls-1" d="M755.17,1814.64c.01-.28.04-.56.08-.84,4.47-.14,8.93-.5,13.4-.06-.02.3-.04.6-.05.89h-13.43Z"/>
      <path class="cls-5" d="M1241.64,219.12c-.01.27-.02.54-.04.82-3.52,2.36-7.05,2.34-10.58,0,.02-.28.04-.55.06-.82h10.55Z"/>
      <path class="cls-2" d="M1926.72,1023.12c-.29,0-.58.01-.86.04-1.71-1.92-1.69-3.86-.05-5.82.3.04.61.05.91.02v5.76Z"/>
      <path class="cls-15" d="M1898,219.94c-.03-.27-.05-.54-.06-.82h4.8c.01.28.03.56.06.84-1.6,1.51-3.2,1.51-4.79-.02Z"/>
      <path class="cls-20" d="M104.63,1814.64c.01-.31,0-.62-.02-.93,1.59.01,3.18.02,4.78.03.05.3.07.6.04.9h-4.8Z"/>
      <path class="cls-8" d="M1898,219.94c1.6,0,3.2.01,4.79.02,4.29.42,8.59.87,12.76,2.05,1.53.43,3.05.95,4.49,1.61,2.15.98,2.52,2,1.55,4.23-.63,1.46-1.39,2.89-2.31,4.19-1.66,2.34-3.38,4.66-5.25,6.83-2.09,2.42-4.34,4.7-6.6,6.96-44.2,44.22-88.42,88.42-132.62,132.64-6.92,6.92-14.3,13.25-22.51,18.6-12.73,8.29-26.62,13.71-41.46,16.83-12.26,2.58-24.68,3.39-37.16,3.56-9.27.12-18.55.02-27.82.02-166.31,0-332.61,0-498.92,0-4.96,0-9.92-.05-14.87.23-26.87,1.53-51.31,9.74-72.54,26.64-6.15,4.89-11.84,10.26-16.87,16.31-2.66,3.21-5.05,6.6-6.84,10.38-1.6,3.36-2.57,6.85-2.58,10.61-.01,5.06,1.77,9.36,5.26,12.98,2.47,2.57,5.45,4.38,8.72,5.8,6.54,2.83,13.47,3.97,20.48,4.6,14.01,1.26,28.03,2.41,42.05,3.58,9.56.8,19.12,1.52,28.68,2.32,9.4.79,18.79,1.65,28.19,2.44,9.56.8,19.12,1.53,28.68,2.33,9.4.79,18.79,1.64,28.19,2.44,9.24.78,18.48,1.52,27.72,2.3,9.72.81,19.43,1.66,29.15,2.47,9.4.79,18.8,1.53,28.2,2.34,13.38,1.15,26.75,2.34,40.12,3.54,11.31,1.01,22.56,2.48,33.78,4.16,27.53,4.12,54.73,9.65,80.98,19.15,7.36,2.66,14.58,5.66,21.42,9.52,5.45,3.08,10.57,6.61,15.11,10.93,9.54,9.09,14.4,20.17,14.02,33.41-.15,5.31-1.4,10.44-3.12,15.44-2.87,8.35-6.97,16.1-11.66,23.56-7.43,11.81-16.1,22.67-25.28,33.13-7.07,8.06-14.51,15.76-22.09,23.34-37.66,37.64-75.47,75.14-112.92,112.99-35.56,35.95-75.58,65.89-119.54,90.71-36.8,20.78-75.36,37.67-115.2,51.66-37.08,13.01-74.87,23.56-113.26,31.95-19.35,4.23-38.78,7.95-58.32,11.12-14.66,2.38-29.38,4.38-44.13,6.17-13.8,1.67-27.63,3.09-41.48,4.32-11.14.99-22.32,1.64-33.49,2.28-11.81.67-23.63,1.32-35.45,1.67-12.95.38-25.9.56-38.85.57-206.76.03-413.53.03-620.29.01-7.67,0-15.34-.13-22.96-1.32-2.85-.44-5.66-1.01-8.38-1.96-1.35-.47-2.68-1.04-3.93-1.74-2.08-1.17-2.53-2.23-1.7-4.33.64-1.62,1.48-3.18,2.38-4.68,1.65-2.75,3.73-5.19,5.9-7.55,1.73-1.88,3.53-3.71,5.33-5.52,42.96-42.97,86.01-85.86,128.86-128.93,18.14-18.23,39.81-29.62,64.74-35.19,14.27-3.19,28.75-4.25,43.33-4.25,22.55.01,45.09,0,67.64,0,151.6,0,303.19,0,454.79,0,11.23,0,22.36-.83,33.3-3.48,19.7-4.78,37.57-13.34,53.32-26.15,6.72-5.47,12.58-11.81,17.74-18.79,2.19-2.96,4.16-6.08,5.44-9.55.66-1.79,1.3-3.63,1.59-5.5,1.26-8.34-1.95-14.67-9-19.11-4.96-3.13-10.5-4.67-16.24-5.38-6.34-.78-12.71-1.3-19.08-1.88-9.87-.9-19.74-1.77-29.61-2.63-8.76-.76-17.52-1.48-26.27-2.24-9.23-.81-18.46-1.64-27.7-2.47-4.3-.39-8.59-.82-12.89-1.18-12.74-1.08-25.48-2.09-38.22-3.21-12.58-1.1-25.14-2.33-37.72-3.45-8.91-.79-17.84-1.45-26.76-2.23-9.07-.79-18.14-1.68-27.21-2.48-8.76-.78-17.52-1.44-26.27-2.26-8.11-.76-16.23-1.55-24.32-2.51-8.09-.95-16.17-2-24.22-3.23-27.5-4.23-54.64-9.95-80.68-20.06-9.54-3.71-18.77-8.07-27.48-13.48-5.45-3.38-10.56-7.18-15.32-11.49-9.38-8.49-12.34-19.05-10.29-31.28,1.17-6.99,3.61-13.57,6.63-19.94,3.77-7.96,8.41-15.42,13.47-22.62,10.33-14.69,22.15-28.12,34.6-41.02,4.88-5.06,9.87-10.02,14.85-15,35.39-35.39,70.96-70.61,106.13-106.22,39.31-39.8,83.9-72.36,133.12-98.73,37.82-20.26,77.31-36.58,118.05-49.94,37.52-12.3,75.66-22.22,114.38-29.93,20.69-4.12,41.46-7.67,62.35-10.58,15.99-2.23,32.01-4.11,48.08-5.73,18.93-1.92,37.91-3.23,56.9-4.33,10.69-.62,21.41-.82,32.11-1.21,1.12-.04,2.24-.13,3.37-.19,3.53.38,7.05.2,10.58,0,5.12.32,10.24.19,15.36-.01,1.59.06,3.19.18,4.78.18,208.26,0,416.52,0,624.77-.02,3.83,0,7.66-.1,11.49-.15Z"/>
      <path class="cls-4" d="M1507.11,1285.01c.9.14,1.35.83,1.81,1.47,7.31,10.21,10.19,21.52,8.45,33.99-1.55,11.13-6.12,21.12-11.62,30.74-7.49,13.1-16.71,24.96-26.55,36.35-7.84,9.08-16.09,17.78-24.57,26.27-38.56,38.55-77.16,77.08-115.67,115.68-31.57,31.65-66.8,58.55-105.17,81.4-38.99,23.22-80.11,41.87-122.78,57.2-40.81,14.65-82.47,26.23-124.86,35.31-20.15,4.32-40.42,8.03-60.78,11.17-12.94,2-25.91,3.86-38.95,5.22-10.49,1.09-20.95,2.44-31.45,3.41-10.18.94-20.4,1.5-30.6,2.32-15.78,1.27-31.6,1.82-47.42,2.35-13.42.45-26.86.51-40.29.51-205.81.03-411.62.02-617.44.02-7.2,0-14.39-.04-21.54-1.02-4.29-.59-8.51-1.36-12.58-2.87-1.66-.61-3.22-1.39-4.66-2.43-2.51-1.81-3.26-4.26-2.53-7.17.51-2.03,1.44-3.88,2.54-5.67,2.36-3.83,5.17-7.31,8.31-10.52,4.59-4.68,9.23-9.31,13.86-13.95,9.27-9.28,18.59-18.5,27.77-27.86,1.95-1.99,3.95-3.03,6.71-2.72,1.26.14,2.56.02,3.84.02,198.46,0,396.91-.01,595.37.02,17.75,0,35.5-.49,53.23-1.1,16.29-.56,32.57-1.64,48.83-2.83,13.38-.98,26.75-2.3,40.09-3.77,13.65-1.5,27.27-3.3,40.87-5.3,21.97-3.24,43.82-7.11,65.56-11.65,28.63-5.98,56.95-13.18,84.95-21.63,39.37-11.88,77.82-26.19,114.98-43.85,42.9-20.39,83.29-44.85,120.3-74.72,14.07-11.36,27.5-23.44,40.28-36.23,40.25-40.26,80.53-80.49,120.73-120.79,14.13-14.17,27.39-29.11,39.03-45.43.54-.75.95-1.67,1.96-1.94Z"/>
      <path class="cls-7" d="M1507.04,1200.86c1.11.14,1.53,1.09,2.05,1.85,4.84,6.99,7.58,14.66,8.09,23.21.61,10.37-2.14,19.93-6.31,29.21-4.15,9.22-9.45,17.77-15.33,25.97-11.49,16.04-24.64,30.63-38.56,44.56-40.35,40.37-80.71,80.75-121.1,121.09-29.69,29.64-62.86,54.81-98.7,76.54-35.09,21.27-72.02,38.75-110.3,53.43-38.99,14.94-78.91,26.82-119.52,36.46-17.87,4.24-35.85,7.97-53.92,11.23-15.08,2.72-30.21,5.25-45.42,7.13-11.57,1.43-23.11,3.06-34.69,4.39-8.25.94-16.54,1.57-24.82,2.26-10.67.89-21.34,1.76-32.01,2.52-6.38.46-12.76.82-19.15,1.01-20.29.63-40.59,1.27-60.9,1.26-205.64-.06-411.28-.03-616.92-.03-7.35,0-14.71,0-22.02-1.03-4.12-.58-8.21-1.33-12.1-2.83-1.63-.62-3.22-1.44-4.65-2.43-2.47-1.72-3.05-3.76-2.29-6.68.65-2.52,1.88-4.75,3.33-6.86,2.63-3.83,5.62-7.38,8.9-10.66,13.33-13.36,26.7-26.67,39.98-40.07,1.82-1.84,3.68-2.92,6.31-2.61,1.26.15,2.56.03,3.83.03,195.89,0,391.77-.03,587.66.04,20.31,0,40.61-.59,60.9-1.09,12.14-.3,24.27-1.1,36.39-1.91,11.48-.77,22.95-1.67,34.39-2.82,12.87-1.29,25.7-2.95,38.55-4.42,17.94-2.04,35.76-4.91,53.52-8.06,36.5-6.49,72.58-14.82,108.19-25.19,31.93-9.3,63.32-20.14,93.99-33.02,41.53-17.45,81.18-38.37,118.27-64.02,19.75-13.66,38.61-28.43,56.26-44.73,4.93-4.56,9.86-9.13,14.61-13.87,40.85-40.79,81.66-81.61,122.47-122.43,12.68-12.68,24.6-26.02,35.43-40.32,1.73-2.29,3.46-4.59,5.19-6.87.09-.11.27-.16.4-.23Z"/>
      <path class="cls-19" d="M1507.14,1116.36c3.45,3.87,5.59,7.94,7.07,12.34,2.86,8.5,3.53,17.12,1.44,25.95-2.34,9.91-6.58,18.99-11.71,27.7-6.83,11.61-15.01,22.24-23.7,32.5-8.89,10.5-18.44,20.38-28.17,30.1-38.13,38.08-76.24,76.18-114.31,114.31-7.12,7.13-14.39,14.1-21.93,20.77-13.65,12.08-27.87,23.47-42.72,34.05-23.73,16.91-48.62,31.91-74.54,45.21-26.91,13.8-54.61,25.75-82.99,36.15-34.83,12.76-70.34,23.24-106.41,31.84-17.85,4.26-35.8,8.11-53.9,11.22-10.22,1.75-20.42,3.68-30.66,5.3-8.04,1.27-16.13,2.23-24.2,3.27-9.18,1.19-18.36,2.37-27.55,3.47-4.44.53-8.9.83-13.35,1.25-5.24.49-10.49,1-15.73,1.51-.64.06-1.27.16-1.91.2-6.86.42-13.75.56-20.56,1.33-7.96.91-15.98.37-23.91,1.48-.47.07-.96.06-1.44.07-16.3.16-32.59,1.16-48.9,1.16-210.29-.04-420.57-.03-630.86,0-8.01,0-15.96-.46-23.84-1.95-3.47-.66-6.84-1.61-9.94-3.37-3.78-2.16-4.57-4.33-3.01-8.37,1.58-4.09,4.19-7.53,7.03-10.79,1.68-1.93,3.46-3.77,5.27-5.58,12.88-12.9,25.76-25.8,38.67-38.67,3.92-3.91,2.7-3.38,8.35-3.38,82.35-.01,164.7,0,247.05,0,115.93,0,231.86-.03,347.8.03,18.55.01,37.08-.74,55.61-1.09,12.13-.23,24.25-1.14,36.37-1.87,7.97-.49,15.93-1.13,23.88-1.86,8.11-.74,16.19-1.68,24.29-2.53,6.99-.74,13.98-1.4,20.95-2.24,7.45-.9,14.89-1.87,22.3-3,8.99-1.36,17.97-2.85,26.93-4.41,11.32-1.97,22.65-3.91,33.91-6.17,15.02-3.01,29.96-6.42,44.83-10.13,18.6-4.64,37.04-9.83,55.35-15.48,21.99-6.78,43.67-14.45,65.02-23.03,41.18-16.55,80.68-36.37,117.86-60.71,18.88-12.36,36.97-25.76,54.22-40.31,9.66-8.14,18.98-16.65,27.92-25.6,41.37-41.4,82.76-82.76,124.14-124.15,13.58-13.58,26.32-27.9,37.59-43.48.65-.9,1.38-1.75,2.39-3.04Z"/>
      <path class="cls-18" d="M437.61,1472.11c-105.7,0-211.39-.01-317.09.02-7.36,0-14.7-.16-22-1.05-4.11-.5-8.24-1.07-12.13-2.64-1.04-.42-2.12-.75-3.09-1.28-4.28-2.35-4.95-4.44-2.96-9,1.75-4,4.35-7.44,7.25-10.65,1.61-1.78,3.31-3.47,5-5.17,12.43-12.44,24.87-24.88,37.31-37.31.57-.57,1.18-1.09,1.69-1.7,1.43-1.71,3.18-2.55,5.45-2.33,1.27.12,2.56.02,3.84.02,198.28,0,396.56,0,594.84,0,5.44,0,10.89.24,16.31-.08,12.61-.74,25.25-.34,37.85-1.02,6.38-.34,12.81-.17,19.13-.92,6.84-.81,13.75-.21,20.53-1.46.62-.12,1.27-.11,1.91-.13,7.5-.22,14.96-.99,22.42-1.81,4.91-.54,9.87-.75,14.79-1.23,4.28-.42,8.56-.96,12.82-1.53,3.32-.44,6.66-.59,9.99-1.09,8.35-1.28,16.78-2.02,25.15-3.24,8.99-1.31,17.93-2.99,26.91-4.39,10.72-1.68,21.35-3.77,32-5.84,13.78-2.69,27.48-5.76,41.12-9.06,22.04-5.32,43.85-11.44,65.48-18.23,22.72-7.12,45.08-15.23,67.13-24.2,22.22-9.05,43.91-19.26,65.06-30.57,28.65-15.32,56.06-32.6,81.77-52.52,9.6-7.44,18.99-15.12,28.06-23.2,9.43-8.4,18.59-17.07,27.52-26,38.32-38.34,76.75-76.57,114.94-115.03,13.73-13.83,26.83-28.28,38.2-44.19,2.22-3.11,2.66-3.11,4.62-.05,4.14,6.45,6.33,13.51,6.75,21.19.47,8.66-1.52,16.78-4.66,24.74-3.97,10.03-9.57,19.14-15.73,27.91-9.1,12.97-19.46,24.9-30.3,36.45-7.22,7.7-14.7,15.13-22.15,22.59-36.49,36.55-72.97,73.11-109.59,109.53-10.42,10.36-21.42,20.11-32.79,29.45-14.46,11.89-29.5,22.95-45.09,33.29-13.85,9.19-28.13,17.68-42.7,25.68-11.07,6.08-22.35,11.76-33.74,17.2-19.04,9.09-38.47,17.26-58.23,24.64-13.17,4.92-26.43,9.56-39.82,13.83-18.25,5.82-36.65,11.11-55.21,15.87-16.07,4.13-32.23,7.9-48.48,11.22-13.12,2.69-26.28,5.21-39.53,7.18-11.67,1.73-23.29,3.78-34.98,5.41-9.16,1.28-18.38,2.13-27.57,3.16-7.77.87-15.52,1.81-23.3,2.57-5.4.53-10.83.78-16.24,1.18-7.32.54-14.64,1.11-21.95,1.67-.32.02-.64.05-.96.07-9.1.37-18.19.8-27.29,1.1-55.78,1.88-111.58.72-167.38.91-60.28.2-120.57.04-180.85.04Z"/>
      <path class="cls-13" d="M1506.88,948.81c.9.05,1.43.68,1.82,1.36,3.23,5.55,5.94,11.25,6.55,17.82.28,3.01,1.02,6.02.63,9.04-.81,6.18-2.18,12.22-4.51,18.05-4.84,12.12-11.68,23.05-19.46,33.44-5.84,7.79-12.03,15.29-18.48,22.6-4.77,5.4-9.76,10.56-14.84,15.64-42.26,42.31-84.57,84.56-126.82,126.88-6.55,6.56-13.29,12.94-20.32,18.96-14.06,12.05-28.59,23.51-43.79,34.12-10.75,7.5-21.75,14.59-32.93,21.4-8.18,4.98-16.6,9.58-25.02,14.15-7.72,4.19-15.51,8.28-23.41,12.12-11.63,5.65-23.41,11-35.34,16.01-16.35,6.86-32.89,13.16-49.61,19.06-17.01,6.01-34.26,11.21-51.59,16.22-14.87,4.3-29.85,8.14-44.92,11.62-11.49,2.65-23.04,5-34.59,7.39-7.64,1.58-15.3,3.1-22.99,4.45-7.06,1.24-14.17,2.18-21.25,3.3-5.19.82-10.35,1.81-15.56,2.54-5.99.84-12.02,1.46-18.03,2.21-3.79.48-7.58,1-11.35,1.57-3.15.48-6.34.44-9.51.98-4.7.8-9.52.84-14.28,1.28-5.23.49-10.46,1.06-15.68,1.6-.32.03-.64.12-.95.11-5.28-.1-10.5.87-15.75,1.02-8.94.26-17.86.87-26.78,1.38-7.98.45-15.96.35-23.93.75-32.27,1.63-64.56.56-96.84.75-32.14.19-64.28.04-96.42.04-153.82,0-307.63-.02-461.45.05-7.05,0-14.04-.45-21.03-1.09-4.91-.45-9.78-1.47-14.3-3.64-.85-.41-1.71-.86-2.46-1.43-1.88-1.41-2.47-3.21-1.57-5.49.7-1.79,1.33-3.58,2.44-5.18,2.28-3.28,4.66-6.49,7.48-9.32,13.76-13.82,27.6-27.57,41.33-41.43,1.84-1.86,3.73-2.83,6.34-2.56,1.42.15,2.88.03,4.31.03,199.71,0,399.42,0,599.13,0,4.16,0,8.34.29,12.47-.08,11.96-1.08,23.97-.22,35.91-1.01,6.7-.45,13.45-.11,20.07-.97,6.83-.89,13.75-.02,20.5-1.54.46-.1.96-.04,1.44-.07,6.05-.37,12.11-.66,18.15-1.14,6.83-.54,13.65-1.2,20.46-1.93,8.39-.89,16.79-1.8,25.16-2.9,8.21-1.07,16.39-2.39,24.58-3.59,7.25-1.06,14.53-1.95,21.75-3.16,8.8-1.47,17.58-3.06,26.32-4.82,11.87-2.39,23.72-4.89,35.54-7.51,19.31-4.27,38.43-9.33,57.42-14.85,15.63-4.54,31.18-9.38,46.52-14.85,16.99-6.06,33.85-12.45,50.47-19.48,19.89-8.41,39.28-17.85,58.34-27.94,21.61-11.44,42.34-24.4,62.36-38.43,11.5-8.06,22.67-16.6,33.42-25.63,7.08-5.95,13.99-12.13,20.83-18.38,11.46-10.47,22.2-21.64,33.18-32.58,33.75-33.63,67.43-67.34,101.07-101.08,6.2-6.22,12.28-12.58,18.08-19.17,7.37-8.39,14.45-17.04,20.92-26.15.17-.24.5-.37.76-.56Z"/>
      <path class="cls-11" d="M434.78,1301.3c-106.65,0-213.31,0-319.96,0-7.51,0-14.94-.96-22.33-2.1-3.27-.5-6.44-1.78-9.45-3.34-2.03-1.05-2.63-2.58-2.46-4.7.1-1.15.43-2.2.99-3.17,1.11-1.93,2.12-3.97,3.5-5.7,2.38-2.99,4.87-5.92,7.56-8.63,12.61-12.72,25.3-25.35,37.97-38.01.68-.68,1.37-1.34,2.04-2.03.94-.97,2.06-1.44,3.43-1.4,1.6.05,3.2,0,4.8,0,203.39,0,406.79,0,610.18-.02,2.71,0,5.41.15,8.09-.63,1.19-.34,2.54-.16,3.82-.17,6.88-.04,13.75-.04,20.63-.12,3.5-.04,6.97-.13,10.49-.65,3.92-.58,7.98-.21,11.97-.3,2.55-.06,5.12.21,7.6-.69.44-.16.95-.16,1.43-.14,7.2.39,14.35-.66,21.48-1.23,5.53-.44,11.16-.28,16.62-1.54.46-.11.96-.16,1.43-.13,5.14.36,10.17-.81,15.24-1.27,4.08-.37,8.23-.73,12.32-1.38,3.58-.57,7.27-.85,10.9-1.27,4.1-.48,8.2-1.05,12.29-1.61,2.84-.38,5.66-.85,8.51-1.2,6-.74,11.94-1.89,17.93-2.64,8.7-1.09,17.24-3.02,25.9-4.27,6.61-.95,13.15-2.41,19.68-3.82,12.76-2.75,25.51-5.55,38.23-8.48,14.13-3.26,28.1-7.16,42.06-11.1,17.36-4.9,34.51-10.44,51.53-16.35,9.34-3.24,18.51-6.98,27.79-10.38,10.34-3.79,20.37-8.35,30.53-12.56,4.42-1.83,8.73-3.95,13.07-5.98,5.64-2.64,11.36-5.13,16.87-8.02,11.31-5.94,22.67-11.76,33.75-18.13,12.46-7.17,24.7-14.67,36.61-22.7,11.38-7.66,22.5-15.7,33.31-24.13,6.91-5.39,13.38-11.34,20.15-16.91,11.37-9.35,21.67-19.83,32.06-30.22,39.91-39.92,79.81-79.84,119.71-119.75,5.64-5.65,10.75-11.77,16.05-17.74,5.72-6.45,11.05-13.2,16.19-20.11.37-.5.89-.91,1.39-1.29.42-.32.98-.25,1.29.14.79,1,1.61,2,2.21,3.12,2.92,5.41,4.47,11.24,4.91,17.36.72,10.15-1.96,19.59-6.17,28.68-5.87,12.68-13.49,24.24-22.37,35-3.55,4.3-6.98,8.7-10.47,13.05-.3.37-.62.73-.96,1.07-5.97,6-11.38,12.52-17.39,18.5-42,41.89-83.95,83.83-125.84,125.84-5.99,6-12.23,11.73-18.58,17.3-13.55,11.88-27.69,23.02-42.41,33.44-12.52,8.86-25.38,17.16-38.43,25.18-5.98,3.67-12.26,6.86-18.37,10.32-13.07,7.42-26.64,13.89-40.16,20.42-8.9,4.3-18.13,7.91-27.17,11.94-7.73,3.44-15.67,6.36-23.55,9.43-11.6,4.53-23.39,8.53-35.21,12.41-19.85,6.52-39.87,12.41-60.11,17.61-9.41,2.42-18.87,4.66-28.31,6.94-10.83,2.61-21.74,4.87-32.68,7.01-10.77,2.11-21.59,3.95-32.42,5.75-7.22,1.2-14.48,2.09-21.72,3.14-5.82.85-11.63,1.8-17.45,2.59-3.78.51-7.59,1.01-11.4,1.14-2.9.1-5.71.74-8.51,1.17-4.57.7-9.26.31-13.75,1.54-.31.08-.64.14-.95.12-5.29-.34-10.45,1.3-15.73,1.09-6.08,1.63-12.45.18-18.53,1.74-.61.16-1.27.07-1.91.09-4.3.14-8.58.12-12.88.78-3.76.58-7.66.21-11.49.27-2.55.04-5.09-.07-7.61.64-1.2.34-2.54.2-3.82.21-5.76.05-11.51.05-17.27.12-3.34.04-6.7-.21-10.01.68-1.05.28-2.23.12-3.34.12-7.84.02-15.67.05-23.51.05-99.94,0-199.88,0-299.81,0Z"/>
      <path class="cls-16" d="M430.34,1215.93c-103.3,0-206.59,0-309.89,0-3.18,0-6.33.06-9.52-.69-2.28-.54-4.77-.21-7.17-.22-5.79-.03-11.36-1.27-16.88-2.89-2.05-.6-3.78-1.65-5.21-3.25-.97-1.08-1.12-2.18-.54-3.52,1.86-4.3,4.37-8.17,7.67-11.47,14.55-14.62,29.17-29.17,43.71-43.8,1.57-1.58,3.21-2.51,5.49-2.29,1.27.12,2.56.02,3.84.02,203.23,0,406.46,0,609.7-.01,3.66,0,7.34.33,10.95-.76,1.03-.31,2.22-.11,3.34-.11,6.08-.02,12.15,0,18.23-.06,3.34-.03,6.64-.1,9.99-.69,3.42-.6,7.01-.19,10.53-.26,3.18-.06,6.33-.02,9.52-.71,2.61-.56,5.41-.19,8.13-.25,2.23-.05,4.45.1,6.64-.67,1.01-.36,2.21-.22,3.33-.26,3.66-.13,7.34.27,10.94-.85,1.03-.32,2.22-.1,3.34-.13,2.55-.07,5.1.15,7.59-.75.86-.31,1.9-.17,2.85-.2,2.23-.07,4.45.04,6.63-.73,1.01-.36,2.21-.2,3.33-.23,2.07-.06,4.16.1,6.15-.74.42-.18.95-.22,1.42-.18,4.35.4,8.59-.66,12.82-1.23,3.6-.48,7.26-.64,10.87-1.4,3.07-.64,6.3-1.03,9.45-1.16,3.53-.15,6.95-.92,10.41-1.32,7.88-.92,15.71-2.31,23.53-3.68,7.82-1.37,15.59-3.07,23.42-4.38,5.33-.89,10.64-1.91,15.91-3.07,7.61-1.68,15.26-3.17,22.84-4.96,11.46-2.71,22.88-5.56,34.31-8.43,8.65-2.17,17.21-4.68,25.78-7.17,15.63-4.54,31.04-9.71,46.43-14.98,11.16-3.82,22.24-7.88,33.14-12.4,10.46-4.34,20.91-8.68,31.26-13.27,12.12-5.38,24.09-11.11,35.74-17.43,9.25-5.02,18.45-10.12,27.55-15.43,13.52-7.89,26.62-16.39,39.48-25.26,8.64-5.96,17.12-12.2,25.22-18.92,4.29-3.55,8.79-6.85,13.06-10.42,3.55-2.96,6.94-6.11,10.35-9.23,26.28-24.1,50.74-50.06,76.07-75.12,25.35-25.08,50.46-50.39,75.62-75.65,4.72-4.74,9.07-9.83,13.3-15.03,1.61-1.97,3.25-3.94,4.93-5.83,3.62-4.06,6.76-8.46,9.96-12.82.71-.96,1.54-.93,2.34.07,1.62,2.02,2.69,4.37,3.58,6.75,1.22,3.27,2.28,6.62,2.37,10.2.03,1.1.42,2.18.56,3.28.15,1.1.39,2.24.25,3.32-1.1,8.57-3.07,16.88-6.89,24.72-3.15,6.47-6.53,12.82-10.51,18.79-3.62,5.43-7.61,10.62-11.58,15.8-3.39,4.42-7.16,8.55-10.69,12.85-3.97,4.84-8.57,9.03-12.77,13.61-20.31,22.17-42.21,42.76-63.33,64.12-21.02,21.26-42.27,42.3-63.4,63.46-5.98,5.99-12.29,11.63-18.52,17.35-8.55,7.85-17.61,15.15-26.69,22.41-14.98,11.98-30.91,22.56-46.92,33.03-7.6,4.97-15.62,9.3-23.45,13.91-12.26,7.21-25.01,13.5-37.75,19.81-9.16,4.53-18.52,8.59-27.9,12.62-7.62,3.27-15.21,6.6-22.98,9.5-8.81,3.29-17.62,6.6-26.46,9.81-6.15,2.23-12.3,4.46-18.54,6.41-12.62,3.95-25.22,7.94-37.96,11.52-13.5,3.78-27.05,7.33-40.68,10.57-11.45,2.72-22.92,5.33-34.49,7.5-7.49,1.41-14.94,3.07-22.44,4.46-4.68.87-9.43,1.43-14.13,2.19-4.7.77-9.42,1.5-14.08,2.48-2.5.53-5.04.4-7.56,1.04-3.36.85-6.92.99-10.4,1.23-2.39.17-4.77.67-7.05,1.15-4.08.85-8.24.56-12.31,1.49-3.69.84-7.58.81-11.37,1.23-4.73.52-9.46,1.11-14.19,1.67-.32.04-.64.17-.94.15-5.29-.41-10.44,1.28-15.72,1.07-1.75-.07-3.52-.07-5.2.61-.43.18-.94.27-1.41.24-7.04-.45-13.96,1.37-21,1.07-2.22-.09-4.45-.12-6.64.64-1.02.35-2.21.23-3.33.24-3.84.04-7.68.04-11.51.07-2.07.02-4.12-.02-6.17.61-1.33.41-2.85.27-4.28.28-10.07.04-20.15.05-30.22.08-1.91,0-3.81-.05-5.69.58-1.02.34-2.21.26-3.32.29-1.6.04-3.2.01-4.8.01h-309.41Z"/>
      <path class="cls-14" d="M441.83,1129.62c-111.62,0-223.24,0-334.85.02-5.61,0-11.08-.92-16.52-2.08-2.5-.54-4.88-1.52-7.09-2.85-1.63-.98-2.17-2.3-1.49-4.07.57-1.48,1.23-2.99,2.13-4.28,2.56-3.65,5.11-7.29,8.31-10.46,12.95-12.83,25.8-25.76,38.69-38.64.68-.68,1.39-1.33,2.03-2.04,1.14-1.26,2.49-1.92,4.23-1.81,1.43.09,2.88.02,4.32.02,208.04,0,416.09,0,624.13-.02,3.02,0,6.05.23,9.02-.78,1.01-.34,2.22-.15,3.34-.15,4.64-.02,9.27,0,13.91-.02,2.86-.02,5.69.05,8.55-.72,1.95-.53,4.13-.18,6.2-.22,4.29-.09,8.58.17,12.86-.83,2.28-.53,4.78-.11,7.17-.14,1.91-.02,3.82.1,5.68-.61.86-.33,1.88-.3,2.83-.32,3.66-.09,7.36.33,10.92-.93,5.13.53,10.13-1.05,15.23-1.02,1.44,0,2.86.01,4.26-.51.73-.27,1.56-.42,2.34-.4,5.12.07,10.13-.81,15.11-1.84.31-.06.64-.12.95-.08,4.35.49,8.59-.63,12.81-1.17,5.81-.74,11.68-1.17,17.43-2.46,3.08-.69,6.28-.96,9.45-1.16,2.56-.16,5.06-.74,7.52-1.22,8.1-1.57,16.26-2.85,24.38-4.28,12.36-2.17,24.6-4.91,36.95-7.16,7.03-1.28,13.96-3.17,20.9-4.87,10.04-2.47,20.08-4.93,30.07-7.57,7.23-1.91,14.42-3.99,21.57-6.19,12.64-3.9,25.29-7.79,37.83-11.99,9.21-3.09,18.23-6.76,27.4-9.98,6.17-2.17,12.21-4.66,18.26-7.14,5.45-2.24,10.89-4.53,16.31-6.85,16.16-6.91,31.87-14.79,47.47-22.85,7.36-3.8,14.41-8.2,21.72-12.11,7.46-3.99,14.63-8.47,21.75-13,7.66-4.87,15.31-9.78,22.6-15.21,6.51-4.85,13.11-9.57,19.6-14.45,4.06-3.06,7.97-6.33,11.98-9.46,4.64-3.63,8.84-7.82,13.48-11.39,5.08-3.91,8.91-9.15,14.29-12.69,1.18-.78,2.08-1.98,3.1-2.99,43.65-43.64,87.36-87.23,130.88-131,5.71-5.74,11.19-11.76,16.43-17.99,2.55-3.03,5.06-6.14,7.79-9.05,1.74-1.84,3.11-4.03,4.66-6.04,1.65-2.14,3.3-4.28,5.02-6.37,1.08-1.32,2.07-1.17,2.93.37,4.36,7.91,6.37,16.44,5.3,25.35-.84,6.94-3.02,13.65-6.06,20.02-3.85,8.08-8.17,15.89-13.43,23.15-3.83,5.28-7.65,10.56-11.81,15.6-4.16,5.04-8.61,9.82-12.8,14.81-6.81,8.1-14.54,15.26-21.98,22.71-41.1,41.21-82.27,82.35-123.48,123.47-4.62,4.61-9.57,8.87-14.67,12.95-2.48,1.99-4.74,4.24-7.19,6.29-4.89,4.08-9.95,7.93-14.87,11.96-11,8.98-22.7,16.97-34.52,24.78-7.71,5.09-15.66,9.82-23.55,14.63-18.84,11.51-38.83,20.83-58.55,30.64-6.12,3.05-12.58,5.43-18.87,8.13-5.13,2.2-10.22,4.49-15.38,6.61-4.71,1.94-9.47,3.79-14.25,5.56-14.5,5.39-29.07,10.6-43.83,15.22-10.33,3.23-20.73,6.25-31.15,9.18-13.34,3.74-26.72,7.25-40.19,10.44-11.59,2.75-23.2,5.42-34.92,7.6-7.49,1.4-14.92,3.08-22.41,4.48-4.68.87-9.42,1.41-14.12,2.16-5.17.83-10.32,1.75-15.48,2.62-2.5.42-5.14-.02-7.54,1.12-5.9.15-11.59,2.04-17.5,2.03-3.46,1.43-7.31.38-10.82,1.69-.86.32-1.9.17-2.85.19-1.75.04-3.51-.08-5.2.63-.57.24-1.25.3-1.88.3-2.72.02-5.43-.03-8.04.94-4.97-.5-9.81.9-14.74,1.17-4.75.26-9.57.37-14.26,1.01-3.99.55-7.92.66-11.9.76-.48.01-.99-.09-1.43.05-4.53,1.41-9.19.75-13.8.9-1.59.05-3.19-.08-4.73.55-1.37.57-2.84.38-4.27.39-3.68.02-7.36,0-11.03.03-2.55.02-5.07-.08-7.59.71-1.47.46-3.17.22-4.77.22-55.01.01-110.02.02-165.03.02-57.09,0-114.18,0-171.27,0h0Z"/>
      <path class="cls-14" d="M1412.03,465.69c90.34,0,180.67,0,271.01-.01,3.33,0,6.72.39,9.97-.82.43-.16.95-.13,1.43-.11,4.66.19,9.13-1.06,13.68-1.72,5.05-.73,10.02-1.76,14.93-3.08,7.4-1.99,14.63-4.47,21.56-7.78,2.74-1.31,5.42-2.73,8.15-4.06,7.5-3.65,14.06-8.67,20.67-13.7,8.43-6.41,15.74-13.97,23.18-21.4,24.54-24.52,49.07-49.06,73.61-73.59.57-.57,1.13-1.13,1.7-1.7,4.05-4.01,3.06-3.42,8.33-3.46,3.84-.03,7.67-.02,11.51,0,2.38.02,4.72.08,7.11.66,2.28.55,4.76.23,7.16.29,4.85.12,9.41,1.5,13.82,3.33,2.2.91,2.52,2.06,1.62,4.23-1.79,4.32-4.44,8.09-7.6,11.51-1.09,1.17-2.25,2.27-3.38,3.4-46.69,46.69-93.38,93.37-140.07,140.06-4.07,4.07-8.6,7.56-13.2,11-4.22,3.16-8.77,5.81-13.32,8.4-4.14,2.36-8.58,4.26-13.04,5.97-7.74,2.97-15.73,5.24-23.9,6.6-3.26.54-6.62.92-9.9,1.4-4.94.72-9.89.29-14.76.88-14.66,1.77-29.35.75-44.02.79-56.6.16-113.2.05-169.8.1-3.25,0-6.27-.58-9.36-1.55-7.74-2.43-15.49-4.95-23.39-6.79-9.74-2.26-19.48-4.59-29.37-6.17-6.73-1.08-13.39-2.75-20.15-3.53-5.83-.67-11.57-2.14-17.48-2.16-3.96-1.39-8.28-.35-12.24-1.77-4.49.31-8.82-1.32-13.3-1.1-1.75.09-3.5.06-5.2-.62-.71-.28-1.57-.28-2.36-.3-3.5-.08-7.03.26-10.43-.93-5.61.53-11.12-.74-16.66-1.16-5.68-.43-11.44-.31-17.05-1.59-.62-.14-1.27-.15-1.91-.16-3.5-.07-7.03.27-10.43-.93-5.61.53-11.08-1.37-16.66-.97-2.94.21-5.6-1.16-8.52-1.05-2.85.11-5.75.41-8.53-.72-.56-.23-1.26-.17-1.9-.18-3.18-.05-6.4.2-9.47-.93-5.61.53-11.08-1.37-16.66-.97-2.94.21-5.6-1.16-8.52-1.05-2.85.11-5.75.41-8.53-.72-.56-.23-1.26-.16-1.9-.18-3.5-.08-7.04.28-10.43-.93-5.61.53-11.08-1.37-16.66-.97-2.94.21-5.6-1.16-8.52-1.05-2.85.11-5.75.41-8.53-.72-.56-.23-1.26-.16-1.9-.18-3.5-.08-7.04.28-10.43-.93-5.61.53-11.08-1.37-16.66-.97-2.94.21-5.6-1.15-8.52-1.05-2.85.1-5.77.44-8.52-.74-.14-.06-.32-.08-.47-.07-4.8.19-9.51-.78-14.27-.99-5.72-.26-11.38-1.55-17.14-1.12-.45.03-.94-.14-1.15-.68-.19-.5-.1-.97.27-1.3.7-.64,1.42-1.28,2.2-1.81,6.76-4.59,14.02-8.16,21.71-10.96,7.67-2.79,15.59-4.46,23.53-6.12.93-.19,1.91-.12,2.87-.14,2.55-.05,5.06.01,7.59-.74,1.63-.48,3.49-.22,5.24-.22,77.55,0,155.09,0,232.64,0,13.59,0,27.18,0,40.77,0Z"/>
      <path class="cls-17" d="M1925.81,1017.34c.02,1.94.03,3.88.05,5.82-.91,3.68-3.2,6.58-5.42,9.5-2.9,3.83-6.23,7.28-9.63,10.68-22.96,22.94-45.9,45.89-68.85,68.84-21.59,21.59-43.19,43.17-64.78,64.77-9.21,9.21-19.36,17.17-30.84,23.39-12.91,7-26.72,11.32-41.17,13.71-10.76,1.78-21.6,2.3-32.48,2.3-46.36,0-92.73,0-139.09,0-.64,0-1.28,0-1.92,0-4.38-.02-4.41-.01-5.75-4.4-2.03-6.65-5.26-12.67-9.53-18.13-.39-.5-.75-1.05-1.22-1.48-1.61-1.49-1.48-3.01-.24-4.66.48-.63.81-1.38,1.18-2.08,1.05-1.97,2.14-3.93,3.14-5.93,5.69-11.41,9.81-23.24,9.66-36.22-.02-1.96.34-2.26,2.17-2.32,1.44-.05,2.88-.02,4.32-.02,45.09,0,90.17-.03,135.26.02,10.89.01,21.73-.49,32.51-1.99,27.27-3.8,51.61-14.21,72.38-32.5,3.36-2.96,6.61-6.04,9.78-9.2,27.83-27.79,55.63-55.6,83.44-83.41.9-.9,1.85-1.77,2.71-2.72,1.03-1.15,2.25-1.62,3.81-1.6,11.02.12,22.07-.38,33.05,1,4.13.52,8.22,1.22,12.1,2.81,2.07.85,4.15,1.73,5.35,3.81Z"/>
      <path class="cls-4" d="M1514.25,1105.24c2.61-5.02,5.38-9.69,7.6-14.66,3.48-7.77,6.15-15.78,7.2-24.25.31-2.53.31-5.1.48-7.65.1-1.55.47-1.92,2.06-1.98,1.44-.06,2.88-.03,4.32-.03,44.77,0,89.55-.04,134.32.03,11.05.02,22.06-.46,33-1.99,26.58-3.71,50.46-13.65,71-31.15,4.26-3.63,8.32-7.48,12.28-11.44,27.24-27.26,54.5-54.5,81.75-81.75,1.02-1.02,2.11-1.97,3.03-3.07,1.36-1.62,3.03-2.06,5.08-2.03,7.03.12,14.07-.02,21.11.16,5.59.14,11.17.7,16.66,1.82,3.29.68,6.5,1.61,9.38,3.49,1.63,1.07,2.32,2.47,2.31,4.42-.01,1.98-.51,3.78-1.39,5.51-1.61,3.15-3.68,6-5.98,8.67-2.4,2.78-4.85,5.53-7.45,8.13-44.76,44.79-89.54,89.56-134.32,134.33-15.91,15.9-34.42,27.44-56.23,33.42-11.3,3.09-22.8,4.86-34.5,5.36-4.95.21-9.91.26-14.87.26-45.89.02-91.79.02-137.68,0-6.95,0-5.33.71-7.45-5.46-1.99-5.8-4.82-11.13-8.52-16.01-1.05-1.39-2.14-2.76-3.2-4.12Z"/>
      <path class="cls-7" d="M1609.98,1045.35c-25.42,0-50.83,0-76.25,0-1.28,0-2.56-.02-3.84-.02-1.26,0-2.04-.47-2.41-1.79-1.05-3.69-2.38-7.28-4.13-10.71-1.82-3.57-3.9-7-6.51-10.03-1.58-1.84-1.89-3.27-.52-5.44,2.81-4.46,5.05-9.25,7.15-14.09,3.77-8.72,6.08-17.82,6.59-27.33.2-3.74.51-3.7,3.9-3.7,5.43,0,10.87,0,16.3,0,40.6,0,81.2-.04,121.8.02,12.49.02,24.91-.79,37.21-2.94,23.93-4.19,45.43-13.78,64.17-29.37,4.31-3.58,8.37-7.42,12.33-11.38,27.91-27.92,55.83-55.84,83.75-83.75.79-.79,1.62-1.55,2.37-2.38,1.03-1.13,2.23-1.63,3.8-1.61,11.02.1,22.06-.37,33.04,1.06,3.96.52,7.9,1.21,11.6,2.83,5.62,2.46,6.53,4.98,3.73,10.55-1.88,3.74-4.39,7.06-7.17,10.16-2.24,2.5-4.56,4.93-6.93,7.3-44.3,44.32-88.63,88.6-132.9,132.94-10.82,10.83-22.79,20.02-36.66,26.63-11.63,5.53-23.87,8.98-36.56,11.01-9.97,1.6-20,2.07-30.09,2.05-21.26-.04-42.52-.01-63.78-.01Z"/>
      <path class="cls-19" d="M1609.79,959.91c-25.42,0-50.84,0-76.25,0-6.12,0-4.94.27-6.6-4.71-2.14-6.46-5.33-12.32-9.62-17.55-1.45-1.77-1.56-3.18-.41-5.14,4.05-6.9,7.43-14.13,9.92-21.76,2.09-6.41,3.53-12.93,3.66-19.7.01-.64.07-1.27.15-1.91.09-.73.59-1.16,1.27-1.2,1.59-.09,3.19-.14,4.78-.14,43.8,0,87.61-.04,131.41.02,9.12.01,18.22-.14,27.29-1.03,23.39-2.29,45.41-8.83,65.26-21.73,8.6-5.59,16.47-12.09,23.73-19.36,28.34-28.4,56.73-56.76,85.12-85.11,5.03-5.02,3.03-4.1,9.93-4.16,5.43-.05,10.87-.02,16.31.04,6.24.07,12.42.82,18.55,1.93,2.84.52,5.57,1.45,8.06,2.96,2.36,1.43,3,2.97,2.42,5.67-.44,2.06-1.47,3.88-2.59,5.63-2.25,3.51-4.89,6.72-7.7,9.78-1.19,1.29-2.44,2.53-3.68,3.78-45.1,45.1-90.21,90.19-135.3,135.31-9.56,9.57-20.21,17.67-32.27,23.82-12.91,6.59-26.62,10.63-40.99,12.68-9.2,1.31-18.42,1.88-27.69,1.87-21.58-.03-43.16,0-64.74,0Z"/>
      <path class="cls-10" d="M1609.66,874.44c-24.62,0-49.24,0-73.87,0-.8,0-1.6,0-2.4,0-5.33-.02-4.27.26-5.86-4.35-2.11-6.1-5.08-11.71-9.05-16.8-.49-.63-.97-1.27-1.45-1.91-.64-.85-.7-1.72-.14-2.66.57-.96,1.05-1.97,1.61-2.94,5.42-9.5,9.45-19.54,11.53-30.3.6-3.12.78-6.33,1.2-9.49.32-2.46.4-2.52,3.03-2.6,1.28-.04,2.56-.01,3.84-.01,44.93,0,89.86-.06,134.78.05,8.01.02,15.99-.37,23.91-1.18,18.08-1.84,35.52-6.31,51.79-14.58,11.01-5.59,21.08-12.61,30.27-20.91,6.06-5.47,11.77-11.27,17.54-17.03,24.21-24.17,48.39-48.38,72.59-72.57.57-.57,1.13-1.13,1.7-1.69,4.05-4,2.91-3.42,8.33-3.45,5.12-.03,10.23,0,15.35,0,6.56,0,13.05.78,19.5,1.91,2.69.47,5.27,1.31,7.66,2.65,3.12,1.74,3.51,2.87,2.42,6.22-1.32,4.05-3.94,7.29-6.57,10.49-3.15,3.83-6.57,7.4-10.08,10.91-43.89,43.84-87.74,87.72-131.62,131.56-10.71,10.7-22.72,19.59-36.5,26.02-9.75,4.55-19.92,7.76-30.48,9.72-11.17,2.07-22.43,3.05-33.8,2.99-21.74-.12-43.49-.04-65.23-.04Z"/>
      <path class="cls-13" d="M1609.15,789.03c-24.14,0-48.27,0-72.41,0-.8,0-1.6,0-2.4,0-6.15.07-4.9-.19-6.62-4.81-1.96-5.27-4.25-10.44-7.84-14.74-2.71-3.25-2.6-5.83-.52-9.3,2.7-4.51,4.94-9.3,6.81-14.25,2.94-7.81,5.13-15.75,5.3-24.16.05-2.44.37-2.7,2.85-2.78,1.44-.05,2.88-.02,4.32-.02,45.72,0,91.44-.05,137.15.05,6.89.02,13.73-.52,20.54-1.18,12.06-1.17,23.95-3.47,35.46-7.51,14.59-5.12,28-12.31,40.1-21.98,5.63-4.49,10.97-9.26,16.05-14.35,27.22-27.26,54.47-54.49,81.71-81.73.9-.9,1.86-1.76,2.7-2.72,1.25-1.42,2.71-2.02,4.64-1.99,7.35.09,14.72-.23,22.05.16,6.18.33,12.41.84,18.39,2.76,1.36.44,2.7.99,3.96,1.66,2.47,1.31,3.12,2.9,2.1,5.55-.92,2.38-2.13,4.63-3.62,6.73-2.6,3.67-5.72,6.87-8.88,10.03-16.73,16.73-33.45,33.46-50.18,50.19-28.94,28.93-57.9,57.83-86.79,86.82-10.6,10.63-22.59,19.23-36.23,25.49-9.76,4.48-20.01,7.36-30.57,9.35-6.44,1.21-12.95,1.63-19.42,2.52-2.99.41-6.06.21-9.1.21-23.18.01-46.36,0-69.53,0h0Z"/>
      <path class="cls-11" d="M1608.8,703.62c-24.62,0-49.23.01-73.85,0-5.49,0-5.05.67-6.97-5.02-1.59-4.73-3.97-9.05-6.73-13.18-.8-1.2-1.59-2.4-2.48-3.52-.92-1.17-.88-2.28-.21-3.54,1.27-2.4,2.45-4.85,3.7-7.26,4-7.69,6.95-15.76,8.65-24.25.69-3.42.98-6.92,1.43-10.39.14-1.09.71-1.78,1.82-1.82,1.6-.07,3.2-.07,4.79-.07,44.76,0,89.52.01,134.27-.02,5.57,0,11.18.49,16.7-.81.61-.14,1.28-.11,1.91-.06,4.35.35,8.59-.65,12.83-1.24,5.97-.83,11.94-1.91,17.76-3.63,11.19-3.31,22.08-7.25,32.28-13.11,6.4-3.68,12.36-7.9,18.21-12.31,3.3-2.49,6.43-5.26,9.36-8.18,29.33-29.22,58.59-58.51,87.89-87.76,5.18-5.17,3.25-4.22,10.37-4.29,4.48-.05,8.96.21,13.42-.03,5.31-.28,10.49.79,15.72,1.21,3.43.27,6.77,1.73,10.12,2.74.73.22,1.41.74,2.02,1.23,1.85,1.49,1.99,2.28,1.01,4.53-2.13,4.89-5.39,9.02-8.85,13-1.36,1.57-2.89,2.98-4.36,4.45-45.1,45.1-90.23,90.16-135.27,135.31-8.98,9-19.02,16.57-30.12,22.62-10.11,5.51-20.91,9.44-32.28,11.61-4.84.92-9.7,1.76-14.55,2.64-.31.06-.63.12-.95.12-6.7-.03-13.32,1.16-20.05,1.11-22.54-.17-45.08-.06-67.62-.06Z"/>
      <path class="cls-16" d="M1594.25,550.1c29.26,0,58.53,0,87.79,0,2.23,0,4.47.17,6.63-.7.57-.23,1.26-.18,1.9-.19,11.39-.11,22.44-2.39,33.39-5.24,15.13-3.94,29.02-10.63,41.82-19.58,5.88-4.11,11.52-8.52,16.62-13.62,29.37-29.42,58.79-58.81,88.2-88.19,4.57-4.56,3.16-3.82,9.12-3.87,4.32-.04,8.64.11,12.95-.03,7.05-.23,13.97.87,20.87,2,2.85.47,5.51,1.61,7.98,3.13,1.07.66,1.52,1.66,1.12,2.88-.39,1.21-.73,2.5-1.41,3.54-2.01,3.06-4.11,6.03-6.57,8.8-12.74,14.37-26.84,27.38-40.29,41.04-13.35,13.56-26.89,26.93-40.34,40.39-19.79,19.79-39.52,39.63-59.4,59.32-5.66,5.6-11.84,10.65-18.34,15.29-9.96,7.11-20.84,12.33-32.43,16.14-5.6,1.84-11.36,3.1-17.16,4.13-6.42,1.14-12.93,1.51-19.42,2.13-15.17,1.45-30.33.61-45.48.7-34.22.19-68.44.06-102.66.06-.8,0-1.6,0-2.4,0-5.71.04-5.84.19-5.1-6.09.37-3.18.93-6.33.67-9.5-.65-8.12-2.08-16.03-5.53-23.56-4.15-9.07-10.5-16.33-17.75-22.93-1.76-1.6-3.83-2.84-5.73-4.29-.34-.26-.71-.69-.75-1.08-.08-.7.62-.61,1.04-.62,1.44-.04,2.88-.03,4.32-.03,28.79,0,57.57,0,86.36,0v-.02Z"/>
      <path class="cls-14" d="M924.31,778.86c-.27,1.21-.91,1.69-1.57,2.12-11.58,7.51-23.79,13.53-37.33,16.78-4.65,1.12-9.37,1.72-14.03,2.68-1.54.32-3.19.07-4.79.1-2.23.05-4.42-.05-6.64.65-1.47.46-3.16.29-4.76.29-24.3.01-48.61,0-72.91,0-74.51,0-149.02-.02-223.52.06-4.26,0-8.27-.64-12.12-2.23-8.55-3.53-17.22-6.75-25.41-11.12-7.33-3.92-14.38-8.29-20.72-13.62-4.75-3.99-9.15-8.46-11.68-14.38-1.39-3.26-2.17-6.58-2.39-10.14-.53-8.67,1.67-16.74,4.97-24.6,1.29-3.09,2.71-6.12,4.12-9.16.8-1.73,1.82-3.33,3.38-4.71,3.43,1.95,6.93,3.8,10.28,5.89,4.22,2.63,8.78,4.51,13.21,6.69,7.05,3.47,14.47,5.89,21.75,8.7,4.3,1.66,8.76,2.96,13.22,4.15,7.99,2.14,16.01,4.16,24.06,6.08,5.71,1.36,11.47,2.56,17.24,3.66,7.17,1.36,14.34,2.86,21.57,3.69,5.84.67,11.57,2.13,17.48,2.15,3.96,1.4,8.28.34,12.23,1.78,4.49-.34,8.81,1.35,13.31,1.09,1.75-.1,3.52-.09,5.19.66.28.13.62.19.93.19,4.63-.04,9.2.68,13.79.92,5.4.29,10.73,1.7,16.18,1.13,4.73,1.78,9.87.16,14.65,1.77,1.3.44,2.86.07,4.29.11,1.12.03,2.33-.14,3.33.23,2.18.81,4.4.69,6.63.73,2.23.04,4.46-.15,6.63.72.85.34,1.89.21,2.85.23,2.7.07,5.4-.13,8.06.77,1.16.39,2.53.16,3.81.19,2.54.06,5.07-.1,7.59.74,1.31.44,2.85.18,4.29.22,1.91.05,3.83-.13,5.68.61.71.29,1.56.3,2.35.32,3.18.09,6.4-.25,9.47.93,5.45-.5,10.76,1.14,16.19,1.02,1.43-.03,2.88-.08,4.25.5.44.18.92.34,1.39.35,4.46.06,8.89.67,13.32.89,5.25.27,10.41,1.71,15.7,1.16,3.56,1.21,7.37.33,10.89,1.07,4.87,1.02,9.89.13,14.67,1.63.88.28,1.9.12,2.86.13,2.86.06,5.74-.21,8.54.8.86.31,1.9.14,2.86.16,2.55.05,5.1-.15,7.58.78.85.32,1.9.15,2.85.18,2.54.07,5.1-.2,7.58.76.85.33,1.9.18,2.85.2,3.02.06,6.05-.18,9.02.81,1.01.34,2.22.13,3.34.15,2.23.05,4.47-.18,6.62.72.7.29,1.58.25,2.37.22,4.16-.16,8.26.19,12.45,1.38Z"/>
    </g>
  </g>
</svg>